<svg width="51" height="51" viewBox="0 0 51 51" fill="none" xmlns="http://www.w3.org/2000/svg">
<path d="M46.75 25.5H34L29.75 31.875H21.25L17 25.5H4.25M46.75 25.5V38.25C46.75 39.3772 46.3022 40.4582 45.5052 41.2552C44.7082 42.0522 43.6272 42.5 42.5 42.5H8.5C7.37283 42.5 6.29183 42.0522 5.4948 41.2552C4.69777 40.4582 4.25 39.3772 4.25 38.25V25.5M46.75 25.5L39.4187 10.8588C39.0669 10.1507 38.5245 9.55479 37.8525 9.13809C37.1806 8.7214 36.4057 8.50042 35.615 8.5H15.385C14.5943 8.50042 13.8194 8.7214 13.1475 9.13809C12.4755 9.55479 11.9331 10.1507 11.5812 10.8588L4.25 25.5" stroke="#F3F3F3" stroke-width="4" stroke-linecap="round" stroke-linejoin="round"/>
</svg>
