<svg width="51" height="51" viewBox="0 0 51 51" fill="none" xmlns="http://www.w3.org/2000/svg">
<g clip-path="url(#clip0_15_61)">
<path d="M25.5 31.875C29.0208 31.875 31.875 29.0208 31.875 25.5C31.875 21.9792 29.0208 19.125 25.5 19.125C21.9792 19.125 19.125 21.9792 19.125 25.5C19.125 29.0208 21.9792 31.875 25.5 31.875Z" stroke="#F3F3F3" stroke-width="4" stroke-linecap="round" stroke-linejoin="round"/>
<path d="M41.225 31.875C40.9421 32.5159 40.8578 33.2269 40.9827 33.9162C41.1077 34.6056 41.4364 35.2417 41.9262 35.7425L42.0538 35.87C42.4489 36.2647 42.7624 36.7334 42.9763 37.2494C43.1901 37.7653 43.3002 38.3184 43.3002 38.8769C43.3002 39.4354 43.1901 39.9884 42.9763 40.5044C42.7624 41.0203 42.4489 41.489 42.0538 41.8837C41.659 42.2789 41.1903 42.5924 40.6744 42.8062C40.1584 43.0201 39.6054 43.1302 39.0469 43.1302C38.4884 43.1302 37.9353 43.0201 37.4194 42.8062C36.9034 42.5924 36.4347 42.2789 36.04 41.8837L35.9125 41.7562C35.4117 41.2664 34.7756 40.9377 34.0863 40.8127C33.3969 40.6877 32.6859 40.7721 32.045 41.055C31.4165 41.3244 30.8805 41.7716 30.5029 42.3418C30.1253 42.9119 29.9227 43.5799 29.92 44.2637V44.625C29.92 45.7522 29.4722 46.8332 28.6752 47.6302C27.8782 48.4272 26.7972 48.875 25.67 48.875C24.5428 48.875 23.4618 48.4272 22.6648 47.6302C21.8678 46.8332 21.42 45.7522 21.42 44.625V44.4337C21.4035 43.7304 21.1759 43.0482 20.7666 42.476C20.3573 41.9037 19.7853 41.4678 19.125 41.225C18.4841 40.9421 17.7731 40.8577 17.0837 40.9827C16.3944 41.1077 15.7583 41.4364 15.2575 41.9262L15.13 42.0537C14.7353 42.4489 14.2666 42.7624 13.7506 42.9762C13.2347 43.1901 12.6816 43.3002 12.1231 43.3002C11.5646 43.3002 11.0116 43.1901 10.4956 42.9762C9.97969 42.7624 9.51096 42.4489 9.11625 42.0537C8.7211 41.659 8.40762 41.1903 8.19375 40.6744C7.97987 40.1584 7.86978 39.6054 7.86978 39.0469C7.86978 38.4884 7.97987 37.9353 8.19375 37.4194C8.40762 36.9034 8.7211 36.4347 9.11625 36.04L9.24375 35.9125C9.73364 35.4117 10.0623 34.7756 10.1873 34.0862C10.3122 33.3969 10.2279 32.6859 9.945 32.045C9.67563 31.4165 9.22836 30.8805 8.65824 30.5029C8.08812 30.1253 7.42005 29.9227 6.73625 29.92H6.375C5.24783 29.92 4.16683 29.4722 3.3698 28.6752C2.57277 27.8782 2.125 26.7972 2.125 25.67C2.125 24.5428 2.57277 23.4618 3.3698 22.6648C4.16683 21.8678 5.24783 21.42 6.375 21.42H6.56625C7.26961 21.4035 7.95176 21.1759 8.52401 20.7666C9.09626 20.3573 9.53215 19.7853 9.775 19.125C10.0579 18.4841 10.1422 17.7731 10.0173 17.0837C9.89227 16.3944 9.56364 15.7583 9.07375 15.2575L8.94625 15.13C8.5511 14.7353 8.23762 14.2666 8.02375 13.7506C7.80987 13.2347 7.69978 12.6816 7.69978 12.1231C7.69978 11.5646 7.80987 11.0116 8.02375 10.4956C8.23762 9.97969 8.5511 9.51096 8.94625 9.11625C9.34096 8.7211 9.80969 8.40762 10.3256 8.19375C10.8416 7.97987 11.3946 7.86978 11.9531 7.86978C12.5116 7.86978 13.0647 7.97987 13.5806 8.19375C14.0966 8.40762 14.5653 8.7211 14.96 9.11625L15.0875 9.24375C15.5883 9.73364 16.2244 10.0623 16.9137 10.1873C17.6031 10.3122 18.3141 10.2279 18.955 9.945H19.125C19.7535 9.67563 20.2895 9.22835 20.6671 8.65824C21.0447 8.08812 21.2473 7.42005 21.25 6.73625V6.375C21.25 5.24783 21.6978 4.16683 22.4948 3.3698C23.2918 2.57277 24.3728 2.125 25.5 2.125C26.6272 2.125 27.7082 2.57277 28.5052 3.3698C29.3022 4.16683 29.75 5.24783 29.75 6.375V6.56625C29.7527 7.25005 29.9553 7.91812 30.3329 8.48824C30.7105 9.05836 31.2465 9.50563 31.875 9.775C32.5159 10.0579 33.2269 10.1422 33.9163 10.0173C34.6056 9.89227 35.2417 9.56364 35.7425 9.07375L35.87 8.94625C36.2647 8.5511 36.7334 8.23762 37.2494 8.02375C37.7653 7.80987 38.3184 7.69978 38.8769 7.69978C39.4354 7.69978 39.9884 7.80987 40.5044 8.02375C41.0203 8.23762 41.489 8.5511 41.8837 8.94625C42.2789 9.34096 42.5924 9.80969 42.8063 10.3256C43.0201 10.8416 43.1302 11.3946 43.1302 11.9531C43.1302 12.5116 43.0201 13.0647 42.8063 13.5806C42.5924 14.0966 42.2789 14.5653 41.8837 14.96L41.7562 15.0875C41.2664 15.5883 40.9377 16.2244 40.8127 16.9137C40.6878 17.6031 40.7721 18.3141 41.055 18.955V19.125C41.3244 19.7535 41.7716 20.2895 42.3418 20.6671C42.9119 21.0447 43.58 21.2473 44.2637 21.25H44.625C45.7522 21.25 46.8332 21.6978 47.6302 22.4948C48.4272 23.2918 48.875 24.3728 48.875 25.5C48.875 26.6272 48.4272 27.7082 47.6302 28.5052C46.8332 29.3022 45.7522 29.75 44.625 29.75H44.4337C43.75 29.7527 43.0819 29.9553 42.5118 30.3329C41.9416 30.7105 41.4944 31.2465 41.225 31.875Z" stroke="#F3F3F3" stroke-width="4" stroke-linecap="round" stroke-linejoin="round"/>
</g>
<defs>
<clipPath id="clip0_15_61">
<rect width="51" height="51" fill="white"/>
</clipPath>
</defs>
</svg>
